<svg width="32" height="32" viewBox="0 0 32 32" fill="none" xmlns="http://www.w3.org/2000/svg">
    <path d="M26.002 5C26.002 4.73478 26.1073 4.48043 26.2949 4.29289C26.4824 4.10536 26.7368 4 27.002 4C27.2672 4 27.5216 4.10536 27.7091 4.29289C27.8966 4.48043 28.002 4.73478 28.002 5V27C28.002 27.2652 27.8966 27.5196 27.7091 27.7071C27.5216 27.8946 27.2672 28 27.002 28C26.7368 28 26.4824 27.8946 26.2949 27.7071C26.1073 27.5196 26.002 27.2652 26.002 27V5ZM3.99899 6.504C3.99899 4.502 6.23499 3.312 7.89599 4.431L21.899 13.863C22.2373 14.0911 22.5147 14.3986 22.7069 14.7585C22.899 15.1185 23.0002 15.52 23.0015 15.9281C23.0028 16.3361 22.9041 16.7383 22.7142 17.0994C22.5243 17.4606 22.2489 17.7698 21.912 18L7.90899 27.56C6.24899 28.692 3.99899 27.504 3.99899 25.494V6.506V6.504Z"
          fill="white"/>
</svg>
